<svg width="700" height="700" viewBox="0 0 700 700" fill="none" xmlns="http://www.w3.org/2000/svg">
<path d="M511.331 437.721C514.094 437.722 516.335 435.472 516.322 432.71C515.976 358.975 506.399 301.762 350.23 301.762C194.061 301.762 184.484 358.975 184.138 432.71C184.125 435.472 186.367 437.722 189.129 437.721L226.815 437.707C224.534 436.677 191.615 365.032 277.742 356.916C349.833 350.121 335.139 409.541 327.793 430.534C326.594 433.96 329.116 437.707 332.746 437.707H366.432C370.061 437.707 372.583 433.96 371.385 430.534C364.039 409.541 349.344 350.121 421.436 356.916C507.562 365.032 474.644 436.677 472.363 437.707L511.331 437.721Z" fill="#81A1C1"/>
<path d="M226.815 437.707L189.129 437.721C186.367 437.722 184.125 435.472 184.138 432.71C184.484 358.975 194.061 301.762 350.23 301.762C506.399 301.762 515.976 358.975 516.322 432.71C516.335 435.472 514.094 437.722 511.331 437.721L472.363 437.707M226.815 437.707C224.534 436.677 191.615 365.032 277.742 356.916C349.833 350.121 335.139 409.541 327.793 430.534C326.594 433.96 329.116 437.707 332.746 437.707H366.432C370.061 437.707 372.583 433.96 371.385 430.534C364.039 409.541 349.344 350.121 421.436 356.916C507.562 365.032 474.644 436.677 472.363 437.707M226.815 437.707V437.707C226.84 437.707 226.842 437.719 226.818 437.709C226.817 437.708 226.816 437.708 226.815 437.707ZM472.363 437.707V437.707C472.337 437.707 472.336 437.719 472.359 437.709C472.36 437.708 472.362 437.708 472.363 437.707Z" stroke="#81A1C1"/>
<path d="M354.724 290.335L354.719 290.346C345.225 312.09 353.384 260.702 354.578 253.366C354.674 252.78 354.875 252.236 355.171 251.721C366.084 232.754 374.645 220.541 388.165 209.367C392.568 205.727 390.338 201.06 385.695 204.388C380.081 208.412 374.516 213.328 368.332 219.258C365.252 222.211 360.154 220.229 360.171 215.962C360.515 133.45 446.148 150.464 498.258 119.915C502.178 117.617 507.57 120.838 506.897 125.332C493.709 213.336 477.633 252.616 384.811 243.779C383.258 243.631 381.661 244.197 380.612 245.351C368.603 258.55 364.49 267.969 354.724 290.335Z" fill="#A3BE8C" stroke="#A3BE8C"/>
<path d="M320.08 249.866C331.787 265.619 328.962 257.372 339.039 287.34C348.93 316.756 342.427 263.382 341.565 256.518C341.506 256.042 341.376 255.578 341.18 255.14C327.509 224.502 307.159 201.927 283.19 182.06C278.924 178.525 281.926 172.993 286.879 175.478C302.478 183.304 319.352 194.661 332.718 208.421C335.938 211.736 341.88 209.727 341.871 205.106C341.651 89.6828 241.246 101.813 186.779 55.9165C183.53 53.1791 178.259 55.0271 177.887 59.259C167.03 182.993 217.284 259.261 315.296 247.814C317.124 247.6 318.982 248.388 320.08 249.866Z" fill="#A3BE8C" stroke="#A3BE8C"/>
<path fill-rule="evenodd" clip-rule="evenodd" d="M523.224 422.972H175.521C167.907 422.972 162.378 430.215 164.386 437.56L182.445 503.616C183.817 508.635 188.377 512.116 193.58 512.116H201.443H498.376H506.116C511.376 512.116 515.972 508.559 517.291 503.467L534.399 437.41C536.292 430.101 530.774 422.972 523.224 422.972Z" fill="#A3BE8C"/>
<path d="M498.376 512.116H201.443L260.609 645.697C262.459 649.873 266.596 652.566 271.164 652.566H428.655C433.222 652.566 437.36 649.873 439.21 645.697L498.376 512.116Z" fill="#A3BE8C"/>
</svg>
